<mxfile host="app.diagrams.net" modified="2024-02-12T13:38:07.601Z" agent="Mozilla/5.0 (X11; Ubuntu; Linux x86_64; rv:122.0) Gecko/20100101 Firefox/122.0" etag="nF32u4cTsudnU0toUMGI" version="23.1.1" type="device">
  <diagram name="Page-1" id="HHqQeTKHzqVGIIFNzKew">
    <mxGraphModel dx="1434" dy="773" grid="1" gridSize="10" guides="1" tooltips="1" connect="1" arrows="1" fold="1" page="1" pageScale="1" pageWidth="827" pageHeight="1169" math="0" shadow="0">
      <root>
        <mxCell id="0" />
        <mxCell id="1" parent="0" />
        <mxCell id="shGiMklEyToHvyBJZLCW-2" value="Etudiant" style="swimlane;fontStyle=1;align=center;verticalAlign=top;childLayout=stackLayout;horizontal=1;startSize=26;horizontalStack=0;resizeParent=1;resizeParentMax=0;resizeLast=0;collapsible=1;marginBottom=0;whiteSpace=wrap;html=1;" parent="1" vertex="1">
          <mxGeometry x="10" y="50" width="320" height="698" as="geometry" />
        </mxCell>
        <mxCell id="shGiMklEyToHvyBJZLCW-6" value="- dateNais : Date" style="text;strokeColor=none;fillColor=none;align=left;verticalAlign=top;spacingLeft=4;spacingRight=4;overflow=hidden;rotatable=0;points=[[0,0.5],[1,0.5]];portConstraint=eastwest;whiteSpace=wrap;html=1;" parent="shGiMklEyToHvyBJZLCW-2" vertex="1">
          <mxGeometry y="26" width="320" height="26" as="geometry" />
        </mxCell>
        <mxCell id="shGiMklEyToHvyBJZLCW-7" value="- codeIns : String " style="text;strokeColor=none;fillColor=none;align=left;verticalAlign=top;spacingLeft=4;spacingRight=4;overflow=hidden;rotatable=0;points=[[0,0.5],[1,0.5]];portConstraint=eastwest;whiteSpace=wrap;html=1;" parent="shGiMklEyToHvyBJZLCW-2" vertex="1">
          <mxGeometry y="52" width="320" height="26" as="geometry" />
        </mxCell>
        <mxCell id="shGiMklEyToHvyBJZLCW-8" value="- codePays : Pays" style="text;strokeColor=none;fillColor=none;align=left;verticalAlign=top;spacingLeft=4;spacingRight=4;overflow=hidden;rotatable=0;points=[[0,0.5],[1,0.5]];portConstraint=eastwest;whiteSpace=wrap;html=1;" parent="shGiMklEyToHvyBJZLCW-2" vertex="1">
          <mxGeometry y="78" width="320" height="26" as="geometry" />
        </mxCell>
        <mxCell id="shGiMklEyToHvyBJZLCW-9" value="- notes : double[3]" style="text;strokeColor=none;fillColor=none;align=left;verticalAlign=top;spacingLeft=4;spacingRight=4;overflow=hidden;rotatable=0;points=[[0,0.5],[1,0.5]];portConstraint=eastwest;whiteSpace=wrap;html=1;" parent="shGiMklEyToHvyBJZLCW-2" vertex="1">
          <mxGeometry y="104" width="320" height="26" as="geometry" />
        </mxCell>
        <mxCell id="shGiMklEyToHvyBJZLCW-4" value="" style="line;strokeWidth=1;fillColor=none;align=left;verticalAlign=middle;spacingTop=-1;spacingLeft=3;spacingRight=3;rotatable=0;labelPosition=right;points=[];portConstraint=eastwest;strokeColor=inherit;" parent="shGiMklEyToHvyBJZLCW-2" vertex="1">
          <mxGeometry y="130" width="320" height="8" as="geometry" />
        </mxCell>
        <mxCell id="shGiMklEyToHvyBJZLCW-10" value="&amp;lt;&amp;lt;create&amp;gt;&amp;gt; + Etudiant()" style="text;strokeColor=none;fillColor=none;align=left;verticalAlign=top;spacingLeft=4;spacingRight=4;overflow=hidden;rotatable=0;points=[[0,0.5],[1,0.5]];portConstraint=eastwest;whiteSpace=wrap;html=1;" parent="shGiMklEyToHvyBJZLCW-2" vertex="1">
          <mxGeometry y="138" width="320" height="26" as="geometry" />
        </mxCell>
        <mxCell id="shGiMklEyToHvyBJZLCW-5" value="&lt;div&gt;&amp;lt;&amp;lt;create&amp;gt;&amp;gt; + Etudiant(_dateNais : Date,&lt;/div&gt;&lt;div&gt;&amp;nbsp;_codeIns : String, _codePays : Pays, _notes : double[3])&lt;/div&gt;" style="text;align=left;verticalAlign=top;spacingLeft=4;spacingRight=4;overflow=hidden;rotatable=0;points=[[0,0.5],[1,0.5]];portConstraint=eastwest;whiteSpace=wrap;html=1;" parent="shGiMklEyToHvyBJZLCW-2" vertex="1">
          <mxGeometry y="164" width="320" height="40" as="geometry" />
        </mxCell>
        <mxCell id="shGiMklEyToHvyBJZLCW-44" value="&lt;div&gt;&amp;lt;&amp;lt;create&amp;gt;&amp;gt; + Etudiant(_dateNais : Date,&lt;/div&gt;&lt;div&gt;&amp;nbsp;_codeIns : String, _codePays : Pays, _note1 : double, _note2 : double, note 3 : double)&lt;/div&gt;" style="text;align=left;verticalAlign=top;spacingLeft=4;spacingRight=4;overflow=hidden;rotatable=0;points=[[0,0.5],[1,0.5]];portConstraint=eastwest;whiteSpace=wrap;html=1;" parent="shGiMklEyToHvyBJZLCW-2" vertex="1">
          <mxGeometry y="204" width="320" height="70" as="geometry" />
        </mxCell>
        <mxCell id="shGiMklEyToHvyBJZLCW-14" value="&lt;div&gt;+ getAge() : int {query}&lt;br&gt;&lt;/div&gt;" style="text;strokeColor=none;fillColor=none;align=left;verticalAlign=top;spacingLeft=4;spacingRight=4;overflow=hidden;rotatable=0;points=[[0,0.5],[1,0.5]];portConstraint=eastwest;whiteSpace=wrap;html=1;" parent="shGiMklEyToHvyBJZLCW-2" vertex="1">
          <mxGeometry y="274" width="320" height="26" as="geometry" />
        </mxCell>
        <mxCell id="shGiMklEyToHvyBJZLCW-15" value="+ getDateNaissance() : int {query}" style="text;strokeColor=none;fillColor=none;align=left;verticalAlign=top;spacingLeft=4;spacingRight=4;overflow=hidden;rotatable=0;points=[[0,0.5],[1,0.5]];portConstraint=eastwest;whiteSpace=wrap;html=1;" parent="shGiMklEyToHvyBJZLCW-2" vertex="1">
          <mxGeometry y="300" width="320" height="26" as="geometry" />
        </mxCell>
        <mxCell id="shGiMklEyToHvyBJZLCW-16" value="&lt;div&gt;+ getCodeIns() : String {query}&lt;br&gt;&lt;/div&gt;" style="text;strokeColor=none;fillColor=none;align=left;verticalAlign=top;spacingLeft=4;spacingRight=4;overflow=hidden;rotatable=0;points=[[0,0.5],[1,0.5]];portConstraint=eastwest;whiteSpace=wrap;html=1;" parent="shGiMklEyToHvyBJZLCW-2" vertex="1">
          <mxGeometry y="326" width="320" height="26" as="geometry" />
        </mxCell>
        <mxCell id="shGiMklEyToHvyBJZLCW-17" value="&lt;div&gt;+ getCodePays() : String {query}&lt;br&gt;&lt;/div&gt;" style="text;strokeColor=none;fillColor=none;align=left;verticalAlign=top;spacingLeft=4;spacingRight=4;overflow=hidden;rotatable=0;points=[[0,0.5],[1,0.5]];portConstraint=eastwest;whiteSpace=wrap;html=1;" parent="shGiMklEyToHvyBJZLCW-2" vertex="1">
          <mxGeometry y="352" width="320" height="26" as="geometry" />
        </mxCell>
        <mxCell id="shGiMklEyToHvyBJZLCW-18" value="&lt;div&gt;+ getNotes() : double[3] {query}&lt;br&gt;&lt;/div&gt;" style="text;strokeColor=none;fillColor=none;align=left;verticalAlign=top;spacingLeft=4;spacingRight=4;overflow=hidden;rotatable=0;points=[[0,0.5],[1,0.5]];portConstraint=eastwest;whiteSpace=wrap;html=1;" parent="shGiMklEyToHvyBJZLCW-2" vertex="1">
          <mxGeometry y="378" width="320" height="26" as="geometry" />
        </mxCell>
        <mxCell id="shGiMklEyToHvyBJZLCW-11" value="+ setNotes(_note1 :&amp;nbsp;double,&amp;nbsp; _note2 :&amp;nbsp;double, _note3 :&amp;nbsp;double)" style="text;strokeColor=none;fillColor=none;align=left;verticalAlign=top;spacingLeft=4;spacingRight=4;overflow=hidden;rotatable=0;points=[[0,0.5],[1,0.5]];portConstraint=eastwest;whiteSpace=wrap;html=1;" parent="shGiMklEyToHvyBJZLCW-2" vertex="1">
          <mxGeometry y="404" width="320" height="40" as="geometry" />
        </mxCell>
        <mxCell id="shGiMklEyToHvyBJZLCW-43" value="+ setNote(index : int, note : double)" style="text;strokeColor=none;fillColor=none;align=left;verticalAlign=top;spacingLeft=4;spacingRight=4;overflow=hidden;rotatable=0;points=[[0,0.5],[1,0.5]];portConstraint=eastwest;whiteSpace=wrap;html=1;" parent="shGiMklEyToHvyBJZLCW-2" vertex="1">
          <mxGeometry y="444" width="320" height="26" as="geometry" />
        </mxCell>
        <mxCell id="shGiMklEyToHvyBJZLCW-13" value="&lt;div&gt;+ setAttributes(_dateNais : Date, _codeIns : String, _codePays :&amp;nbsp;Pays, notes :&amp;nbsp; double[3])&lt;/div&gt;" style="text;strokeColor=none;fillColor=none;align=left;verticalAlign=top;spacingLeft=4;spacingRight=4;overflow=hidden;rotatable=0;points=[[0,0.5],[1,0.5]];portConstraint=eastwest;whiteSpace=wrap;html=1;" parent="shGiMklEyToHvyBJZLCW-2" vertex="1">
          <mxGeometry y="470" width="320" height="34" as="geometry" />
        </mxCell>
        <mxCell id="_9FL97XwIci8HbDHQB2q-1" value="+ setDate(_date : Date)" style="text;strokeColor=none;fillColor=none;align=left;verticalAlign=top;spacingLeft=4;spacingRight=4;overflow=hidden;rotatable=0;points=[[0,0.5],[1,0.5]];portConstraint=eastwest;whiteSpace=wrap;html=1;" vertex="1" parent="shGiMklEyToHvyBJZLCW-2">
          <mxGeometry y="504" width="320" height="26" as="geometry" />
        </mxCell>
        <mxCell id="_9FL97XwIci8HbDHQB2q-2" value="+ saisie()" style="text;strokeColor=none;fillColor=none;align=left;verticalAlign=top;spacingLeft=4;spacingRight=4;overflow=hidden;rotatable=0;points=[[0,0.5],[1,0.5]];portConstraint=eastwest;whiteSpace=wrap;html=1;" vertex="1" parent="shGiMklEyToHvyBJZLCW-2">
          <mxGeometry y="530" width="320" height="26" as="geometry" />
        </mxCell>
        <mxCell id="shGiMklEyToHvyBJZLCW-42" value="+ calculMoyenne() : double" style="text;strokeColor=none;fillColor=none;align=left;verticalAlign=top;spacingLeft=4;spacingRight=4;overflow=hidden;rotatable=0;points=[[0,0.5],[1,0.5]];portConstraint=eastwest;whiteSpace=wrap;html=1;" parent="shGiMklEyToHvyBJZLCW-2" vertex="1">
          <mxGeometry y="556" width="320" height="26" as="geometry" />
        </mxCell>
        <mxCell id="shGiMklEyToHvyBJZLCW-19" value="+ calculMention() : String" style="text;strokeColor=none;fillColor=none;align=left;verticalAlign=top;spacingLeft=4;spacingRight=4;overflow=hidden;rotatable=0;points=[[0,0.5],[1,0.5]];portConstraint=eastwest;whiteSpace=wrap;html=1;" parent="shGiMklEyToHvyBJZLCW-2" vertex="1">
          <mxGeometry y="582" width="320" height="26" as="geometry" />
        </mxCell>
        <mxCell id="shGiMklEyToHvyBJZLCW-20" value="+ ligneResultats() : String" style="text;strokeColor=none;fillColor=none;align=left;verticalAlign=top;spacingLeft=4;spacingRight=4;overflow=hidden;rotatable=0;points=[[0,0.5],[1,0.5]];portConstraint=eastwest;whiteSpace=wrap;html=1;" parent="shGiMklEyToHvyBJZLCW-2" vertex="1">
          <mxGeometry y="608" width="320" height="38" as="geometry" />
        </mxCell>
        <mxCell id="shGiMklEyToHvyBJZLCW-45" value="- getAgeFromBirthDate(_birthDate : Date) : int" style="text;strokeColor=none;fillColor=none;align=left;verticalAlign=top;spacingLeft=4;spacingRight=4;overflow=hidden;rotatable=0;points=[[0,0.5],[1,0.5]];portConstraint=eastwest;whiteSpace=wrap;html=1;" parent="shGiMklEyToHvyBJZLCW-2" vertex="1">
          <mxGeometry y="646" width="320" height="26" as="geometry" />
        </mxCell>
        <mxCell id="shGiMklEyToHvyBJZLCW-46" value="- getAgeFromBirthDate(_birthDate : LocalDate) : int" style="text;strokeColor=none;fillColor=none;align=left;verticalAlign=top;spacingLeft=4;spacingRight=4;overflow=hidden;rotatable=0;points=[[0,0.5],[1,0.5]];portConstraint=eastwest;whiteSpace=wrap;html=1;" parent="shGiMklEyToHvyBJZLCW-2" vertex="1">
          <mxGeometry y="672" width="320" height="26" as="geometry" />
        </mxCell>
        <mxCell id="shGiMklEyToHvyBJZLCW-21" value="&amp;lt;&amp;lt;enum&amp;gt;&amp;gt; Pays" style="swimlane;fontStyle=0;childLayout=stackLayout;horizontal=1;startSize=26;fillColor=none;horizontalStack=0;resizeParent=1;resizeParentMax=0;resizeLast=0;collapsible=1;marginBottom=0;whiteSpace=wrap;html=1;" parent="1" vertex="1">
          <mxGeometry x="344" y="50" width="140" height="104" as="geometry" />
        </mxCell>
        <mxCell id="shGiMklEyToHvyBJZLCW-22" value="Français" style="text;strokeColor=none;fillColor=none;align=center;verticalAlign=top;spacingLeft=4;spacingRight=4;overflow=hidden;rotatable=0;points=[[0,0.5],[1,0.5]];portConstraint=eastwest;whiteSpace=wrap;html=1;" parent="shGiMklEyToHvyBJZLCW-21" vertex="1">
          <mxGeometry y="26" width="140" height="26" as="geometry" />
        </mxCell>
        <mxCell id="shGiMklEyToHvyBJZLCW-27" value="Francophone" style="text;strokeColor=none;fillColor=none;align=center;verticalAlign=top;spacingLeft=4;spacingRight=4;overflow=hidden;rotatable=0;points=[[0,0.5],[1,0.5]];portConstraint=eastwest;whiteSpace=wrap;html=1;" parent="shGiMklEyToHvyBJZLCW-21" vertex="1">
          <mxGeometry y="52" width="140" height="26" as="geometry" />
        </mxCell>
        <mxCell id="shGiMklEyToHvyBJZLCW-41" value="&lt;div align=&quot;center&quot;&gt;Étranger &lt;br&gt;&lt;/div&gt;" style="text;strokeColor=none;fillColor=none;align=center;verticalAlign=top;spacingLeft=4;spacingRight=4;overflow=hidden;rotatable=0;points=[[0,0.5],[1,0.5]];portConstraint=eastwest;whiteSpace=wrap;html=1;" parent="shGiMklEyToHvyBJZLCW-21" vertex="1">
          <mxGeometry y="78" width="140" height="26" as="geometry" />
        </mxCell>
      </root>
    </mxGraphModel>
  </diagram>
</mxfile>
